Coordinates
version=1
nRows=18
nColumns=33
inDegrees=yes

Units are S.I. units (second, meters, Newtons, ...)
Angles are in degrees.

endheader
time	ground_thorax_rot_x	ground_thorax_rot_y	ground_thorax_rot_z	ground_thorax_tx	ground_thorax_ty	ground_thorax_tz	clav_prot_r	clav_elev_r	scapula_abduction_r	scapula_elevation_r	scapula_upward_rot_r	scapula_winging_r	shoulder_elv_r	plane_of_elev_r	axial_rot_r	elbow_flexion_r	pro_sup_r	wrist_flex_r	wrist_dev_r	clav_prot_l	clav_elev_l	scapula_abduction_l	scapula_elevation_l	scapula_upward_rot_l	scapula_winging_l	shoulder_elv_l	plane_of_elev_l	axial_rot_l	elbow_flexion_l	pro_sup_l	wrist_flex_l	wrist_dev_l	
1.3600	2.543529	4.859338	12.237738	-0.113402	1.037426	0.034845	5.740900	12.942921	21.112414	8.105827	23.947999	-11.606143	4.111315	-75.735464	50.353612	54.166691	-25.143394	68.870517	-25.000000	11.624198	-3.766648	-17.398964	-21.846485	-43.262696	-0.232904	60.057876	-37.370834	-4.276156	64.829638	20.553236	0.265919	-25.000000	
1.3700	2.444414	5.192625	12.194756	-0.113415	1.037322	0.035056	5.285043	12.694633	20.284330	7.924565	23.913493	-11.337015	6.118239	-76.138732	50.412539	57.250814	-28.709987	62.927576	-25.000000	11.957690	-3.913203	-18.009593	-21.713436	-43.322943	0.054411	60.081901	-37.120607	-4.297514	64.678104	20.972858	-0.587732	-24.999999	
1.3800	2.400877	5.510418	12.140526	-0.113397	1.037266	0.035197	4.846778	12.420396	19.462305	7.735023	23.834667	-11.064691	7.997474	-76.370021	50.982111	58.863784	-29.753324	59.780812	-25.000000	12.246313	-4.060251	-18.537566	-21.576806	-43.370688	0.306866	60.090260	-36.796449	-4.347603	64.420015	21.347527	-1.322712	-24.999999	
1.3900	2.307670	5.753778	12.117537	-0.113363	1.037115	0.035201	4.449602	12.136836	18.703741	7.543452	23.731985	-10.810172	9.748053	-76.414894	51.993164	59.533456	-29.346167	57.619657	-25.000000	12.499771	-4.142829	-19.019933	-21.530715	-43.478208	0.520386	60.086989	-36.526679	-4.265067	64.306932	21.629926	-1.962763	-24.999999	
1.4000	2.216717	5.924309	12.105027	-0.113294	1.036898	0.035074	4.141399	11.848249	18.099769	7.351991	23.604739	-10.600709	10.971729	-76.270836	53.335434	58.830005	-27.527747	58.767874	-25.000000	12.669606	-4.177836	-19.348212	-21.526987	-43.567562	0.660506	60.100409	-36.310476	-4.172040	64.260767	21.811405	-2.413378	-24.999998	
1.4100	2.141596	6.029284	12.109683	-0.113235	1.036625	0.034896	3.923187	11.611435	17.651487	7.201394	23.476522	-10.441166	11.857552	-76.054226	54.602852	57.695724	-25.198360	60.644628	-25.000000	12.782762	-4.194642	-19.576223	-21.544670	-43.658189	0.752165	60.113214	-36.146353	-4.056511	64.276904	21.903663	-2.708226	-24.999996	
1.4200	2.091299	6.077896	12.116005	-0.113175	1.036306	0.034674	3.815686	11.411583	17.386764	7.085428	23.326642	-10.336217	12.210472	-75.777598	55.701643	56.074195	-22.879834	64.508962	-25.000000	12.824937	-4.208263	-19.669604	-21.556202	-43.718457	0.786323	60.159274	-36.057251	-3.973374	64.363307	21.906245	-2.830787	-24.999994	
1.4300	2.076535	6.095419	12.124277	-0.113151	1.035974	0.034495	3.788445	11.288258	17.253496	7.030626	23.180747	-10.274124	12.334376	-75.562225	56.321066	54.905258	-21.340876	67.699555	-25.000000	12.838861	-4.248399	-19.710283	-21.539552	-43.768340	0.800860	60.216588	-36.013808	-3.911088	64.492876	21.853333	-2.855949	-24.999989	
1.4400	2.077338	6.096097	12.132049	-0.113160	1.035643	0.034360	3.812245	11.222022	17.202880	7.021187	23.040062	-10.239323	12.332413	-75.417735	56.530144	54.296521	-20.753218	69.999887	-25.000000	12.842867	-4.309619	-19.733008	-21.502015	-43.815112	0.809980	60.287397	-36.008559	-3.852469	64.685979	21.762558	-2.834497	-24.999980	
1.4500	2.086816	6.097540	12.134732	-0.113206	1.035324	0.034282	3.833497	11.216814	17.150614	7.053958	22.929433	-10.209776	12.511197	-75.363794	56.423282	54.483465	-20.810015	69.999797	-25.000000	12.871691	-4.386161	-19.806957	-21.459217	-43.886194	0.840529	60.341294	-35.989353	-3.751632	64.936310	21.653652	-2.832244	-24.999965	
1.4600	2.095369	6.103541	12.125148	-0.113247	1.035021	0.034204	3.847853	11.222194	17.087295	7.093616	22.825950	-10.178193	12.707489	-75.313164	56.330008	54.707111	-20.869636	69.999637	-25.000000	12.905029	-4.459323	-19.889527	-21.420540	-43.959923	0.874410	60.399227	-35.952119	-3.622226	65.247487	21.513912	-2.823271	-24.999937	
1.4700	2.101803	6.113149	12.103936	-0.113281	1.034729	0.034125	3.846319	11.242681	17.013607	7.136483	22.752492	-10.147838	12.916777	-75.268127	56.271696	54.967570	-20.927563	69.999349	-25.000000	12.944382	-4.520673	-19.981377	-21.391655	-44.031191	0.911772	60.455711	-35.887052	-3.461399	65.614583	21.333423	-2.798033	-24.999887	
1.4800	2.105827	6.127882	12.082560	-0.113319	1.034466	0.034064	3.829328	11.275596	16.922047	7.184043	22.698361	-10.115050	13.155710	-75.228352	56.246060	55.277660	-20.987011	69.998833	-25.000000	12.993772	-4.582312	-20.092312	-21.364261	-44.107737	0.957163	60.514863	-35.795552	-3.262790	66.018676	21.098380	-2.744348	-24.999798	
1.4900	2.111226	6.153403	12.066714	-0.113390	1.034240	0.034032	3.800208	11.314341	16.800349	7.239027	22.638818	-10.072845	13.478085	-75.185512	56.269972	55.659600	-21.057057	69.997911	-25.000000	13.072137	-4.665606	-20.265524	-21.331455	-44.221959	1.027151	60.579526	-35.666638	-3.015179	66.456871	20.753521	-2.626620	-24.999638	
1.5000	2.117069	6.189464	12.066449	-0.113493	1.034073	0.034042	3.762173	11.352019	16.643112	7.300955	22.557663	-10.017365	13.889794	-75.137880	56.319282	56.112485	-21.134278	69.996255	-25.000000	13.175853	-4.777382	-20.493932	-21.285448	-44.370531	1.119809	60.657865	-35.509200	-2.723948	66.908431	20.307715	-2.437565	-24.999352	
1.5100	2.121503	6.232161	12.079907	-0.113631	1.033969	0.034095	3.713535	11.385382	16.460414	7.362138	22.469108	-9.953308	14.371937	-75.082236	56.389840	56.618062	-21.205731	69.993297	-25.000000	13.299578	-4.907021	-20.761954	-21.227982	-44.534042	1.230232	60.750809	-35.322507	-2.408485	67.359177	19.779799	-2.170613	-24.998839	
1.5200	2.122311	6.276572	12.102340	-0.113781	1.033927	0.034191	3.643758	11.414254	16.254983	7.413462	22.400187	-9.885018	14.895515	-75.028844	56.453725	57.163764	-21.245627	69.987979	-25.000000	13.426580	-5.037059	-21.028308	-21.159800	-44.674632	1.344093	60.863827	-35.114798	-2.096093	67.791221	19.205479	-1.809466	-24.997920	
1.5300	2.116451	6.319105	12.126913	-0.113941	1.033929	0.034318	3.557084	11.436003	16.040677	7.450570	22.356121	-9.817359	15.451310	-74.970127	56.512495	57.739796	-21.245061	69.978504	-25.000000	13.556340	-5.161366	-21.288899	-21.082874	-44.783500	1.460341	60.999697	-34.891798	-1.797292	68.214859	18.589111	-1.337821	-24.996276	
